<svg width="92" height="52" viewBox="0 0 135 32" fill="none" xmlns="http://www.w3.org/2000/svg"> <path fill-rule="evenodd" clip-rule="evenodd" d="M67.2533 8.63352C66.278 8.63352 65.4399 8.31155 64.7391 7.66761C64.0384 7.0142 63.688 6.22822 63.688 5.30966C63.688 4.40057 64.0384 3.62405 64.7391 2.98011C65.4399 2.3267 66.278 2 67.2533 2C68.2382 2 69.0762 2.3267 69.7675 2.98011C70.4683 3.62405 70.8187 4.40057 70.8187 5.30966C70.8187 6.22822 70.4683 7.0142 69.7675 7.66761C69.0762 8.31155 68.2382 8.63352 67.2533 8.63352ZM41 3.90338V32.9943H60.1335V27.2841H48.0312V3.90338H41ZM63.7734 11.1761V32.9943H70.7195V11.1761H63.7734ZM94.1889 17.838L87.8111 18.0085C87.7448 17.554 87.5649 17.1515 87.2713 16.8011C86.9777 16.4413 86.5942 16.1619 86.1207 15.963C85.6567 15.7547 85.117 15.6505 84.5014 15.6505C83.6965 15.6505 83.0099 15.8115 82.4418 16.1335C81.883 16.4555 81.6084 16.8911 81.6179 17.4403C81.6084 17.8664 81.7789 18.2358 82.1293 18.5483C82.4891 18.8608 83.1283 19.1117 84.0469 19.3011L88.2514 20.0966C90.4295 20.5132 92.0488 21.2045 93.1094 22.1704C94.1795 23.1363 94.7192 24.4147 94.7287 26.0057C94.7192 27.5019 94.2741 28.804 93.3935 29.9119C92.5223 31.0199 91.3291 31.8816 89.8139 32.4971C88.2988 33.1032 86.5658 33.4062 84.6151 33.4062C81.4995 33.4062 79.0421 32.767 77.2429 31.4886C75.4531 30.2007 74.4304 28.4772 74.1747 26.3182L81.0355 26.1477C81.187 26.9432 81.58 27.5492 82.2145 27.9659C82.849 28.3825 83.6586 28.5909 84.6435 28.5909C85.5336 28.5909 86.258 28.4252 86.8168 28.0937C87.3755 27.7623 87.6596 27.3219 87.669 26.7727C87.6596 26.2803 87.4418 25.8873 87.0156 25.5937C86.5895 25.2907 85.9219 25.0539 85.0128 24.8835L81.206 24.1591C79.0185 23.7613 77.3897 23.0274 76.3196 21.9574C75.2495 20.8778 74.7192 19.5047 74.7287 17.838C74.7192 16.3797 75.1075 15.1344 75.8935 14.1022C76.6794 13.0606 77.7969 12.2651 79.2457 11.7159C80.6946 11.1666 82.4039 10.892 84.3736 10.892C87.3281 10.892 89.6577 11.5123 91.3622 12.7528C93.0668 13.9839 94.009 15.6789 94.1889 17.838ZM110.464 16.2897V11.1761H106.529V5.94884H99.5831V11.1761H96.6996V16.2897H99.5831V26.9005C99.5642 28.3778 99.8577 29.6041 100.464 30.5795C101.079 31.5549 101.965 32.2746 103.12 32.7386C104.285 33.1932 105.682 33.3825 107.31 33.3068C108.144 33.2689 108.859 33.179 109.455 33.0369C110.061 32.8949 110.53 32.7765 110.862 32.6818L109.81 27.6676C109.659 27.7055 109.432 27.7528 109.129 27.8096C108.835 27.857 108.556 27.8807 108.29 27.8807C107.921 27.8807 107.604 27.8286 107.339 27.7244C107.074 27.6108 106.87 27.4261 106.728 27.1704C106.595 26.9053 106.529 26.5596 106.529 26.1335V16.2897H110.464ZM123.972 33.4062C121.69 33.4062 119.72 32.9564 118.063 32.0568C116.415 31.1477 115.147 29.8551 114.256 28.179C113.376 26.4933 112.935 24.4905 112.935 22.1704C112.935 19.9166 113.38 17.9469 114.271 16.2613C115.161 14.5663 116.415 13.25 118.035 12.3125C119.654 11.3655 121.562 10.892 123.759 10.892C125.312 10.892 126.733 11.1335 128.021 11.6164C129.308 12.0994 130.421 12.8144 131.359 13.7613C132.296 14.7083 133.025 15.8778 133.546 17.2699C134.067 18.6524 134.327 20.2386 134.327 22.0284V23.7613H119.782V23.946C119.782 24.8361 119.957 25.6174 120.308 26.2897C120.658 26.9526 121.155 27.4687 121.799 27.838C122.443 28.2074 123.21 28.392 124.1 28.392C124.716 28.392 125.274 28.3068 125.776 28.1363C126.278 27.9659 126.709 27.7149 127.069 27.3835C127.429 27.0521 127.699 26.6449 127.879 26.1619L134.256 26.3466C133.991 27.7765 133.409 29.0218 132.509 30.0824C131.619 31.1335 130.45 31.9526 129.001 32.5397C127.552 33.1174 125.876 33.4062 123.972 33.4062ZM120.35 17.838C120.009 18.3953 119.821 19.025 119.786 19.7272H127.864C127.855 18.9886 127.68 18.3305 127.339 17.7528C126.998 17.1752 126.529 16.7254 125.933 16.4034C125.345 16.0719 124.668 15.9062 123.901 15.9062C123.125 15.9062 122.429 16.0814 121.813 16.4318C121.198 16.7727 120.71 17.2415 120.35 17.838ZM142.165 32.0568C143.822 32.9564 145.792 33.4062 148.074 33.4062C149.977 33.4062 151.653 33.1174 153.102 32.5397C154.551 31.9526 155.721 31.1335 156.611 30.0824C157.51 29.0218 158.093 27.7765 158.358 26.3466L151.98 26.1619C151.8 26.6449 151.53 27.0521 151.17 27.3835C150.811 27.7149 150.38 27.9659 149.878 28.1363C149.376 28.3068 148.817 28.392 148.202 28.392C147.312 28.392 146.545 28.2074 145.901 27.838C145.257 27.4687 144.759 26.9526 144.409 26.2897C144.059 25.6174 143.884 24.8361 143.884 23.946V23.7613H158.429V22.0284C158.429 20.2386 158.169 18.6524 157.648 17.2699C157.127 15.8778 156.398 14.7083 155.46 13.7613C154.523 12.8144 153.41 12.0994 152.122 11.6164C150.834 11.1335 149.414 10.892 147.861 10.892C145.664 10.892 143.756 11.3655 142.136 12.3125C140.517 13.25 139.262 14.5663 138.372 16.2613C137.482 17.9469 137.037 19.9166 137.037 22.1704C137.037 24.4905 137.477 26.4933 138.358 28.179C139.248 29.8551 140.517 31.1477 142.165 32.0568ZM143.888 19.7272C143.922 19.025 144.11 18.3953 144.452 17.838C144.812 17.2415 145.299 16.7727 145.915 16.4318C146.53 16.0814 147.226 15.9062 148.003 15.9062C148.77 15.9062 149.447 16.0719 150.034 16.4034C150.631 16.7254 151.099 17.1752 151.44 17.7528C151.781 18.3305 151.956 18.9886 151.966 19.7272H143.888Z" fill="#09153D"/> <path d="M33.6 15.3782C33.6 6.88507 26.8843 0 18.6001 0C10.3519 0 3.68347 6.76469 3.60075 15.2205C3.53831 21.6068 7.27371 27.1056 12.633 29.4904C13.5299 29.8895 14.297 30.5427 14.8466 31.3716L17.5304 35.4195C18.0436 36.1935 19.1563 36.1935 19.6695 35.4195L22.3533 31.3717C22.9012 30.5453 23.6643 29.8914 24.5586 29.4941C29.8782 27.1308 33.6 21.7005 33.6 15.3782V15.3782Z" fill="url(#paint0_linear_1_625)"/> <path d="M17.9999 34.8C17.9122 34.8 17.692 34.7767 17.5439 34.5612L14.8323 30.6151C14.1947 29.6871 13.3093 28.9612 12.272 28.5159C6.94613 26.2292 3.54248 21.0408 3.60071 15.2978C3.6391 11.5095 5.15185 7.96298 7.86026 5.31146C10.5684 2.66023 14.1698 1.19995 17.9999 1.19995H18C25.9402 1.19995 32.4 7.58992 32.4 15.4442C32.4 21.1269 28.9928 26.2592 23.7199 28.5194C22.6886 28.9615 21.8059 29.6862 21.1676 30.6152L18.456 34.5612C18.3079 34.7767 18.0877 34.8 17.9999 34.8V34.8Z" fill="url(#paint1_linear_1_625)"/> <path d="M18 25.2C23.302 25.2 27.6 20.9019 27.6 15.6C27.6 10.2981 23.302 6 18 6C12.6981 6 8.40002 10.2981 8.40002 15.6C8.40002 20.9019 12.6981 25.2 18 25.2Z" fill="url(#paint2_linear_1_625)"/> <path d="M33.5998 18.6474L24.3867 9.6306C22.9534 8.1348 20.9162 7.19995 18.6556 7.19995C14.317 7.19995 10.7998 10.6422 10.7998 14.8883C10.7998 17.1008 11.755 19.0946 13.2834 20.4973L22.993 29.9999C23.4919 29.4659 24.1005 29.0368 24.7838 28.7471C29.1108 26.912 32.4093 23.1931 33.5998 18.6474Z" fill="url(#paint3_linear_1_625)"/> <path d="M18.5998 22.7999C22.9076 22.7999 26.3998 19.3078 26.3998 14.9999C26.3998 10.6921 22.9076 7.19995 18.5998 7.19995C14.292 7.19995 10.7998 10.6921 10.7998 14.9999C10.7998 19.3078 14.292 22.7999 18.5998 22.7999Z" fill="#FFF2F1"/> <defs> <linearGradient id="paint0_linear_1_625" x1="9.54684" y1="6.09625" x2="40.2214" y2="36.0163" gradientUnits="userSpaceOnUse"> <stop stop-color="#FF7044"/> <stop offset="1" stop-color="#F92814"/> </linearGradient> <linearGradient id="paint1_linear_1_625" x1="14.7499" y1="12.2376" x2="4.23917" y2="1.61192" gradientUnits="userSpaceOnUse"> <stop stop-color="#FF7044" stop-opacity="0"/> <stop offset="1" stop-color="#FFA425"/> </linearGradient> <linearGradient id="paint2_linear_1_625" x1="23.7887" y1="21.3887" x2="4.64186" y2="2.24183" gradientUnits="userSpaceOnUse"> <stop stop-color="#FF7044"/> <stop offset="1" stop-color="#F92814"/> </linearGradient> <linearGradient id="paint3_linear_1_625" x1="28.7441" y1="24.7619" x2="20.3567" y2="16.1918" gradientUnits="userSpaceOnUse"> <stop stop-color="#F92814" stop-opacity="0"/> <stop offset="1" stop-color="#C1272D"/> </linearGradient> </defs> </svg>
